<svg width="22" height="19" viewBox="0 0 22 19" fill="none" xmlns="http://www.w3.org/2000/svg">
<rect width="22" height="19" fill="#E5E5E5"/>
<g id="MAIN PAGE">
<rect width="1280" height="1217" transform="translate(-739 -642)" fill="black"/>
<g id="Elements">
<g id="Element">
<g id="Rectangle" filter="url(#filter0_d_0_1)">
<rect x="-240" y="-312" width="282" height="361" rx="10" fill="white"/>
</g>
<g id="Group">
<path id="Vector (Stroke)" fill-rule="evenodd" clip-rule="evenodd" d="M19.2444 2.74849C17.5625 1.08549 14.8243 1.08384 13.1403 2.74355L10.9911 4.91203L8.82016 2.76549C7.13407 1.08182 4.40014 1.08935 2.74406 2.74323L2.73878 2.7485C1.93084 3.54736 1.5 4.60323 1.5 5.74496C1.5 6.87098 1.94247 7.93498 2.74468 8.74728L10.9804 16.8905L19.2444 8.71923C20.9215 7.06094 20.9138 4.38283 19.2497 2.75372L19.2444 2.74849ZM10.9804 19L1.6841 9.80806C0.606277 8.72013 0 7.27695 0 5.74496C0 4.21297 0.583822 2.76979 1.6841 1.68186C3.92957 -0.560619 7.61215 -0.560619 9.88007 1.70406L10.9804 2.792L12.0806 1.68186C14.3486 -0.560619 18.0311 -0.560619 20.2991 1.68186C22.567 3.90213 22.567 7.54338 20.2991 9.78586L10.9804 19Z" fill="black"/>
</g>
</g>
</g>
</g>
<defs>
<filter id="filter0_d_0_1" x="-265" y="-337" width="332" height="411" filterUnits="userSpaceOnUse" color-interpolation-filters="sRGB">
<feFlood flood-opacity="0" result="BackgroundImageFix"/>
<feColorMatrix in="SourceAlpha" type="matrix" values="0 0 0 0 0 0 0 0 0 0 0 0 0 0 0 0 0 0 127 0" result="hardAlpha"/>
<feOffset/>
<feGaussianBlur stdDeviation="12.5"/>
<feColorMatrix type="matrix" values="0 0 0 0 0 0 0 0 0 0 0 0 0 0 0 0 0 0 0.15 0"/>
<feBlend mode="normal" in2="BackgroundImageFix" result="effect1_dropShadow_0_1"/>
<feBlend mode="normal" in="SourceGraphic" in2="effect1_dropShadow_0_1" result="shape"/>
</filter>
</defs>
</svg>
